#tb 0: 1/25
0,          0,          0,        1,   253440, 0x1ada7ac4
0,          1,          1,        1,   253440, 0x711c1599
0,          2,          2,        1,   253440, 0x533017ea
0,          3,          3,        1,   253440, 0x86c6865f
0,          4,          4,        1,   253440, 0xe5962b75
0,          5,          5,        1,   253440, 0xe45dae97
0,          6,          6,        1,   253440, 0x2d6b8047
0,          7,          7,        1,   253440, 0xdd48b706
0,          8,          8,        1,   253440, 0xb7a7823a
0,          9,          9,        1,   253440, 0xa491f11f
0,         10,         10,        1,   253440, 0x48b9abd5
0,         11,         11,        1,   253440, 0x7d72078e
0,         12,         12,        1,   253440, 0xe6901732
0,         13,         13,        1,   253440, 0x8866ee68
0,         14,         14,        1,   253440, 0x603e8fbc
0,         15,         15,        1,   253440, 0x25c5633d
0,         16,         16,        1,   253440, 0x7ef22b82
0,         17,         17,        1,   253440, 0xffb25705
0,         18,         18,        1,   253440, 0x921f9560
0,         19,         19,        1,   253440, 0xd367c2a4
0,         20,         20,        1,   253440, 0x6962a02d
0,         21,         21,        1,   253440, 0x780d2b78
0,         22,         22,        1,   253440, 0xa7bdf61e
0,         23,         23,        1,   253440, 0x19797146
0,         24,         24,        1,   253440, 0x3128c3bd
0,         25,         25,        1,   253440, 0x2a3df40e
0,         26,         26,        1,   253440, 0x3eb71582
0,         27,         27,        1,   253440, 0x57f8c64d
0,         28,         28,        1,   253440, 0x7e5872b1
0,         29,         29,        1,   253440, 0x2c092689
0,         30,         30,        1,   253440, 0xe92f4956
0,         31,         31,        1,   253440, 0x6b49e20f
0,         32,         32,        1,   253440, 0x274e4d28
0,         33,         33,        1,   253440, 0xc1660f8c
0,         34,         34,        1,   253440, 0xca9e5566
0,         35,         35,        1,   253440, 0x30fa342a
0,         36,         36,        1,   253440, 0xcbf915fd
0,         37,         37,        1,   253440, 0x27fa90f6
0,         38,         38,        1,   253440, 0x777743aa
0,         39,         39,        1,   253440, 0xe6104ff6
0,         40,         40,        1,   253440, 0xed51cb35
0,         41,         41,        1,   253440, 0x218d192d
0,         42,         42,        1,   253440, 0x100a5c86
0,         43,         43,        1,   253440, 0xddcc3023
0,         44,         44,        1,   253440, 0x788ff77d
0,         45,         45,        1,   253440, 0x4488fb59
0,         46,         46,        1,   253440, 0x634ff895
0,         47,         47,        1,   253440, 0xd68bccb6
0,         48,         48,        1,   253440, 0x1a9810ff
0,         49,         49,        1,   253440, 0x05beb75b
